<svg width="24" height="24" viewBox="0 0 24 24" fill="none" xmlns="http://www.w3.org/2000/svg">
<path d="M19 10.1701C19.0005 10.3195 18.9676 10.4671 18.9035 10.6021C18.8395 10.737 18.7461 10.856 18.63 10.9501L12.63 15.7801C12.4511 15.9272 12.2267 16.0076 11.995 16.0076C11.7634 16.0076 11.539 15.9272 11.36 15.7801L5.36003 10.7801C5.15581 10.6103 5.02739 10.3664 5.00301 10.102C4.97863 9.83758 5.06029 9.5743 5.23003 9.37008C5.39977 9.16586 5.64368 9.03744 5.90811 9.01306C6.17253 8.98868 6.43581 9.07034 6.64003 9.24008L12 13.7101L17.36 9.39008C17.5068 9.2678 17.6856 9.19012 17.8751 9.16624C18.0647 9.14236 18.2571 9.17328 18.4296 9.25534C18.6021 9.33739 18.7475 9.46715 18.8486 9.62926C18.9497 9.79137 19.0023 9.97905 19 10.1701Z" fill="black"/>
</svg>
