<svg width="64" height="63" viewBox="0 0 64 63" fill="none" xmlns="http://www.w3.org/2000/svg">
<path d="M13.7142 23.9321C11.2315 24.5569 9.06236 26.0667 7.61434 28.1779C6.16633 30.2891 5.5391 32.8565 5.85049 35.3976C6.16188 37.9387 7.39046 40.2786 9.3054 41.9777C11.2203 43.6768 13.6898 44.6182 16.2499 44.625H18.8749M31.9999 31.5V55.125V31.5ZM31.9999 31.5L25.4374 36.75L31.9999 31.5ZM31.9999 31.5L38.5624 36.75L31.9999 31.5Z" stroke="black" stroke-width="2" stroke-linecap="round" stroke-linejoin="round"/>
<path d="M42.0537 18.7372C41.1565 15.1845 38.942 12.1058 35.8591 10.1253C32.7761 8.14477 29.0555 7.4106 25.4513 8.07161C21.8471 8.73262 18.6291 10.7394 16.4497 13.685C14.2702 16.6307 13.2923 20.2948 13.7142 23.9347C13.7142 23.9347 14.1159 26.25 14.9375 27.5625" stroke="black" stroke-width="2" stroke-linecap="round" stroke-linejoin="round"/>
<path d="M45.125 44.625C46.9784 44.6237 48.8104 44.23 50.5006 43.4696C52.1908 42.7093 53.7009 41.5996 54.9313 40.2136C56.1617 38.8276 57.0847 37.1968 57.6394 35.4284C58.1941 33.66 58.368 31.7942 58.1497 29.9537C57.9313 28.1133 57.3257 26.3399 56.3726 24.7504C55.4195 23.1609 54.1406 21.7913 52.62 20.7317C51.0994 19.6721 49.3717 18.9465 47.5505 18.6027C45.7293 18.259 43.856 18.3048 42.0538 18.7372L38.5625 19.6875" stroke="black" stroke-width="2" stroke-linecap="round" stroke-linejoin="round"/>
</svg>
