<svg width="122" height="29" viewBox="0 0 122 29" fill="none" xmlns="http://www.w3.org/2000/svg">
<path d="M0 0.0716034H6.97794V27.9273H0V0.0716034Z" fill="#1D9BF0"/>
<path d="M20.6087 8.08704L15.9177 12.6729L7.55533 4.6014L12.2463 0.0155454L20.6087 8.08704Z" fill="#1D9BF0"/>
<path d="M20.5442 7.95594V17.11L15.5995 12.4436L20.5442 7.95594Z" fill="#1D9BF0"/>
<path d="M6.83456 0L12.2831 7.9293e-08L7.69486 4.57494L6.83456 3.87855V0Z" fill="#1D9BF0"/>
<path d="M23.6103 0.0716034H30.5882V28.2059H23.6103V0.0716034Z" fill="#1D9BF0"/>
<path d="M23.6103 28.113L18.4963 28.113L23.1087 23.6118L23.9578 24.321L23.6103 28.113Z" fill="#1D9BF0"/>
<path d="M10.0846 20.2206L9.90582 10.9268L14.8324 15.6112L10.0846 20.2206Z" fill="#1D9BF0"/>
<path d="M23.0902 23.6494L18.3992 28.2353L10.0368 20.1638L14.7278 15.5779L23.0902 23.6494Z" fill="#1D9BF0"/>
<path d="M46.6719 28.2353C44.8722 28.2353 43.3708 27.8886 42.1677 27.1951C40.9746 26.4919 40.0797 25.5673 39.4831 24.4211C38.8865 23.2652 38.5883 22.0035 38.5883 20.6357C38.5883 19.3162 38.8667 18.0977 39.4235 16.9804C39.9902 15.8631 40.8155 14.9673 41.8993 14.2931C42.983 13.6092 44.3054 13.2673 45.8665 13.2673C47.2983 13.2673 48.4914 13.5515 49.4459 14.1197C50.4005 14.688 51.1163 15.4489 51.5936 16.4025C52.0709 17.3464 52.3095 18.3915 52.3095 19.5377C52.3095 19.8555 52.2896 20.1782 52.2498 20.5057C52.2101 20.8236 52.1504 21.1559 52.0709 21.5026H42.4362C42.5754 22.3984 42.8637 23.1256 43.3012 23.6842C43.7486 24.2333 44.2905 24.6378 44.9269 24.8979C45.5732 25.1579 46.2642 25.288 47 25.288C47.865 25.288 48.6704 25.182 49.4161 24.9701C50.1618 24.7486 50.8479 24.4596 51.4743 24.1032L51.6533 27.1373C51.0865 27.4262 50.3806 27.6815 49.5354 27.903C48.6903 28.1246 47.7358 28.2353 46.6719 28.2353ZM42.5257 19.0754H48.5511C48.5511 18.6419 48.4666 18.2085 48.2975 17.7751C48.1285 17.332 47.8451 16.9612 47.4474 16.6626C47.0596 16.364 46.5327 16.2147 45.8665 16.2147C44.912 16.2147 44.1613 16.4844 43.6144 17.0238C43.0675 17.5631 42.7046 18.247 42.5257 19.0754Z" fill="#F5F8FA"/>
<path d="M55.2073 27.9464V13.4985H58.6675L58.8166 16.1858L57.9516 15.0877C58.5183 14.6254 59.1944 14.2064 59.9799 13.8308C60.7654 13.4551 61.6802 13.2673 62.7242 13.2673C64.6332 13.2673 66.0501 13.8838 66.9748 15.1166C67.8995 16.3399 68.3618 17.9292 68.3618 19.8844V27.9464H64.663V20.1734C64.663 18.8249 64.4294 17.828 63.9621 17.1827C63.5047 16.5374 62.754 16.2147 61.71 16.2147C60.8648 16.2147 60.1738 16.417 59.6369 16.8215C59.1 17.2164 58.6277 17.7462 58.22 18.4108L58.9061 16.6481V27.9464H55.2073Z" fill="#F5F8FA"/>
<path d="M79.2272 28.2353C77.4275 28.2353 75.9261 27.8886 74.723 27.1951C73.5299 26.4919 72.635 25.5673 72.0384 24.4211C71.4419 23.2652 71.1436 22.0035 71.1436 20.6357C71.1436 19.3162 71.422 18.0977 71.9788 16.9804C72.5455 15.8631 73.3708 14.9673 74.4546 14.2931C75.5384 13.6092 76.8608 13.2673 78.4218 13.2673C79.8536 13.2673 81.0467 13.5515 82.0013 14.1197C82.9558 14.688 83.6717 15.4489 84.1489 16.4025C84.6262 17.3464 84.8648 18.3915 84.8648 19.5377C84.8648 19.8555 84.8449 20.1782 84.8052 20.5057C84.7654 20.8236 84.7057 21.1559 84.6262 21.5026H74.9915C75.1307 22.3984 75.419 23.1256 75.8565 23.6842C76.304 24.2333 76.8459 24.6378 77.4822 24.8979C78.1285 25.1579 78.8195 25.288 79.5553 25.288C80.4203 25.288 81.2257 25.182 81.9714 24.9701C82.7172 24.7486 83.4032 24.4596 84.0296 24.1032L84.2086 27.1373C83.6418 27.4262 82.9359 27.6815 82.0907 27.903C81.2456 28.1246 80.2911 28.2353 79.2272 28.2353ZM75.081 19.0754H81.1064C81.1064 18.6419 81.0219 18.2085 80.8529 17.7751C80.6838 17.332 80.4005 16.9612 80.0027 16.6626C79.615 16.364 79.088 16.2147 78.4218 16.2147C77.4673 16.2147 76.7166 16.4844 76.1697 17.0238C75.6229 17.5631 75.26 18.247 75.081 19.0754Z" fill="#F5F8FA"/>
<path d="M88.6575 27.9464V16.4458H86.5397L86.8678 13.4985H88.6575V10.4355C88.6575 9.16411 89.0453 8.15276 89.8208 7.40147C90.6063 6.65018 91.7299 6.27454 93.1915 6.27454C93.6687 6.27454 94.1062 6.29862 94.5039 6.34678C94.9116 6.39494 95.2795 6.45754 95.6076 6.5346L95.2795 9.42418C95.1304 9.37602 94.9663 9.3423 94.7873 9.32304C94.6083 9.29414 94.3846 9.2797 94.1162 9.2797C93.5793 9.2797 93.1517 9.41936 92.8335 9.69869C92.5154 9.97801 92.3563 10.4355 92.3563 11.0712V13.4985H95.6374V16.4458H92.3563V27.9464H88.6575Z" fill="#F5F8FA"/>
<path d="M103.135 28.2353C102.2 28.2353 101.439 28.0523 100.853 27.6863C100.266 27.3107 99.8337 26.8339 99.5553 26.256C99.2769 25.678 99.1377 25.076 99.1377 24.45V16.4458H97.0198L97.3479 13.4985H99.1377V10.3199L102.836 9.9443V13.4985H106.118V16.4458H102.836V22.9763C102.836 23.7083 102.881 24.2381 102.971 24.5656C103.06 24.8834 103.264 25.0857 103.582 25.1724C103.9 25.2494 104.407 25.288 105.103 25.288H106.118L105.789 28.2353H103.135Z" fill="#F5F8FA"/>
<path d="M116.088 28.2353C114.288 28.2353 112.787 27.8886 111.584 27.1951C110.391 26.4919 109.496 25.5673 108.899 24.4211C108.303 23.2652 108.004 22.0035 108.004 20.6357C108.004 19.3162 108.283 18.0977 108.839 16.9804C109.406 15.8631 110.231 14.9673 111.315 14.2931C112.399 13.6092 113.721 13.2673 115.283 13.2673C116.714 13.2673 117.907 13.5515 118.862 14.1197C119.816 14.688 120.532 15.4489 121.01 16.4025C121.487 17.3464 121.726 18.3915 121.726 19.5377C121.726 19.8555 121.706 20.1782 121.666 20.5057C121.626 20.8236 121.566 21.1559 121.487 21.5026H111.852C111.991 22.3984 112.28 23.1256 112.717 23.6842C113.165 24.2333 113.707 24.6378 114.343 24.8979C114.989 25.1579 115.68 25.288 116.416 25.288C117.281 25.288 118.086 25.182 118.832 24.9701C119.578 24.7486 120.264 24.4596 120.89 24.1032L121.069 27.1373C120.503 27.4262 119.797 27.6815 118.951 27.903C118.106 28.1246 117.152 28.2353 116.088 28.2353ZM111.942 19.0754H117.967C117.967 18.6419 117.883 18.2085 117.714 17.7751C117.545 17.332 117.261 16.9612 116.863 16.6626C116.476 16.364 115.949 16.2147 115.283 16.2147C114.328 16.2147 113.577 16.4844 113.03 17.0238C112.484 17.5631 112.121 18.247 111.942 19.0754Z" fill="#F5F8FA"/>
</svg>
